<?xml version="1.0" standalone="no"?>
<!DOCTYPE svg PUBLIC "-//W3C//DTD SVG 20010904//EN"
 "http://www.w3.org/TR/2001/REC-SVG-20010904/DTD/svg10.dtd">
<svg version="1.0" xmlns="http://www.w3.org/2000/svg"
 width="400.000000pt" height="400.000000pt" viewBox="0 0 400.000000 400.000000"
 preserveAspectRatio="xMidYMid meet">

<g transform="translate(0.000000,400.000000) scale(0.100000,-0.100000)"
fill="#000000" stroke="none">
<path d="M945 3210 c-177 -24 -255 -51 -351 -122 -92 -69 -99 -90 -98 -283 0
-88 2 -187 3 -221 4 -78 -13 -155 -47 -222 -15 -29 -83 -113 -150 -188 -83
-90 -122 -140 -118 -150 4 -9 13 -13 23 -10 149 46 195 51 458 51 240 0 272
-2 415 -28 200 -36 202 -36 195 -47 -4 -6 1 -13 9 -16 13 -5 12 -10 -9 -26
-28 -22 -33 -53 -10 -62 13 -5 13 -9 3 -26 -10 -15 -10 -25 -2 -38 14 -22 40
-22 36 0 -2 10 6 28 18 40 25 27 25 35 2 49 -18 11 -17 13 5 35 13 13 21 29
18 34 -4 6 46 10 139 10 122 0 178 6 345 35 109 19 218 35 242 35 29 0 69 -12
120 -36 103 -48 141 -33 85 33 -68 81 -187 282 -225 379 l-41 106 0 221 0 220
-30 46 c-68 106 -127 134 -325 151 -72 6 -203 18 -292 26 -173 15 -321 16
-418 4z m510 -40 c405 -33 418 -36 502 -146 l28 -37 0 -236 c1 -232 1 -237 27
-296 14 -33 25 -62 23 -64 -2 -1 -32 6 -67 17 -87 28 -110 31 -308 37 -195 6
-237 9 -425 32 -169 20 -337 13 -515 -22 -74 -14 -152 -29 -173 -32 l-38 -6 8
44 c4 24 7 73 6 109 -8 285 -7 367 5 402 29 82 165 166 317 194 104 20 262 33
320 28 22 -2 153 -13 290 -24z m-190 -726 c72 -9 236 -19 365 -24 201 -7 245
-11 305 -31 61 -19 67 -23 45 -30 -43 -12 -234 -10 -382 6 -369 38 -458 45
-586 45 -118 0 -334 -20 -490 -46 -35 -5 -41 -4 -37 8 4 10 61 24 190 47 296
53 328 55 590 25z m60 -69 c83 -8 220 -23 305 -31 112 -12 193 -15 292 -10
131 7 137 7 148 -13 11 -21 9 -21 -104 -21 -64 0 -171 -5 -240 -11 -110 -10
-143 -9 -287 10 -347 45 -641 54 -834 26 -55 -8 -113 -15 -130 -15 -27 0 -28
1 -13 17 12 12 65 22 190 39 211 27 459 30 673 9z m-90 -70 c77 -8 190 -21
250 -30 85 -11 135 -12 220 -5 61 5 172 10 248 12 111 1 140 -1 147 -13 8 -12
-5 -15 -73 -21 -441 -36 -559 -37 -704 -8 -196 38 -350 53 -488 47 -118 -6
-335 -28 -410 -43 l-30 -6 25 25 c22 23 40 27 165 41 77 9 154 18 170 20 50 7
331 -4 480 -19z m-90 -54 c66 -11 162 -27 214 -36 104 -18 230 -17 564 5 191
13 198 13 212 -6 8 -10 15 -21 15 -24 0 -3 -60 -5 -133 -5 -77 -1 -172 -8
-227 -17 -196 -35 -353 -33 -575 7 -260 47 -566 55 -755 21 -114 -21 -119 -21
-94 5 16 16 46 24 125 35 272 38 476 43 654 15z m-132 -67 c78 -8 161 -19 183
-24 162 -36 425 -40 618 -9 162 26 335 24 363 -4 17 -18 16 -18 -44 -11 -58 6
-99 2 -461 -46 -118 -16 -286 -12 -407 10 -147 27 -476 60 -596 60 -83 0 -266
-24 -356 -46 -19 -5 -24 -3 -21 7 8 24 53 39 175 58 149 24 359 26 546 5z
m-69 -60 c88 -8 226 -26 305 -40 80 -13 178 -24 218 -24 85 0 322 23 473 46
61 10 135 14 179 12 74 -5 76 -6 113 -49 20 -24 36 -45 34 -47 -2 -2 -33 12
-67 30 -57 29 -73 32 -139 32 -41 -1 -154 -16 -250 -34 -261 -50 -398 -47
-745 17 -126 23 -166 26 -395 27 -234 1 -262 -1 -344 -22 -49 -12 -90 -21 -92
-19 -14 13 45 39 121 52 50 9 110 20 135 25 76 13 284 11 454 -6z"/>
<path d="M980 2944 c-69 -7 -136 -16 -149 -19 l-23 -6 6 -127 c9 -161 16 -225
26 -236 4 -4 31 -3 60 3 62 13 246 14 435 1 192 -12 342 -16 350 -9 9 9 -13
381 -22 390 -17 15 -555 17 -683 3z m661 -36 c9 -13 22 -319 14 -326 -10 -10
-117 -8 -344 7 -195 13 -365 11 -432 -5 l-26 -6 -7 157 c-4 86 -5 159 -2 163
3 3 61 11 128 18 140 14 659 8 669 -8z"/>
<path d="M1290 2815 c-36 -30 -68 -55 -72 -55 -5 0 -8 23 -8 50 0 38 -4 50
-15 50 -13 0 -15 -20 -15 -121 0 -92 3 -120 13 -117 7 3 13 26 15 55 2 31 8
53 16 56 7 3 40 -21 72 -54 52 -53 84 -72 84 -52 0 4 -27 35 -61 69 l-60 61
55 43 c31 23 56 49 56 56 0 22 -11 17 -80 -41z"/>
<path d="M770 1995 c-186 -60 -226 -293 -75 -441 64 -63 139 -94 228 -94 124
1 211 68 251 192 5 16 16 17 91 13 97 -5 105 -8 105 -38 1 -38 35 -101 77
-138 55 -50 128 -73 209 -66 248 20 384 310 222 476 -55 56 -103 75 -193 75
-96 1 -149 -20 -220 -85 -50 -46 -70 -79 -89 -143 l-12 -41 -88 0 -89 0 -17
62 c-20 73 -56 131 -103 167 -85 65 -208 90 -297 61z m212 -55 c248 -127 184
-459 -85 -438 -79 7 -132 34 -189 96 -68 77 -86 166 -49 248 21 45 81 100 126
114 48 15 149 5 197 -20z m820 -32 c136 -75 144 -258 17 -372 -194 -175 -487
-20 -404 213 55 157 248 236 387 159z"/>
<path d="M817 1733 c-12 -11 -8 -21 12 -28 12 -3 18 -12 15 -20 -7 -17 30 -55
54 -55 23 0 52 30 52 53 0 9 9 21 20 27 11 6 18 15 15 21 -7 10 -158 13 -168
2z"/>
<path d="M1577 1717 c-9 -5 -7 -11 6 -21 9 -7 17 -23 17 -34 0 -14 11 -27 31
-38 30 -15 32 -15 55 7 13 12 24 29 24 37 0 8 7 20 17 27 31 23 5 35 -68 33
-39 -2 -76 -6 -82 -11z"/>
<path d="M1200 1285 c0 -8 18 -16 50 -20 58 -8 110 1 110 20 0 9 -21 13 -80
13 -61 1 -80 -2 -80 -13z"/>
<path d="M1400 1215 c0 -18 5 -25 20 -25 15 0 20 7 20 25 0 18 -5 25 -20 25
-15 0 -20 -7 -20 -25z"/>
<path d="M992 1000 c4 -20 127 -30 366 -28 170 1 208 7 186 28 -5 5 -132 10
-282 12 -238 3 -272 1 -270 -12z"/>
</g>
</svg>
